<?xml version="1.0" encoding="UTF-8"?>
<svg id="Calque_2" data-name="Calque 2" xmlns="http://www.w3.org/2000/svg" viewBox="0 0 644.74 205.78">
  <defs>
    <style>
      .cls-1 {
        fill: #fcbd02;
        stroke-width: 0px;
      }
    </style>
  </defs>
  <g id="Tracé">
    <g>
      <path class="cls-1" d="M84.2,55.86c-16.86-1.94-32.27,1.54-45.16,9.95-11.37-6.62-24.52-10.04-39.04-10.04v27.91c6.67,0,12.79,1.05,18.35,3.15C.1,114.71-3.56,158.09,10.31,184.39c7.27,13.79,18.69,21.39,32.13,21.39,12.73,0,23.58-7.21,30.54-20.3,5.31-9.98,8.11-22.85,8.11-37.23,0-22.04-6.7-44.1-18.39-60.5-.49-.69-.99-1.37-1.5-2.04,5.92-2.23,12.53-2.94,19.8-2.1,40.87,4.71,43.22,50.97,42.06,102.07-.11,4.98-.22,9.68-.22,13.93h27.91c0-3.93.1-8.48.21-13.3.48-21.34,1.14-50.57-6.06-75.61-11.76-40.89-39.51-52.38-60.72-54.83ZM42.44,177.86c-2.67,0-5.17-2.19-7.45-6.5-7.95-15.08-7.13-45.99,5.29-66.97,8.2,11.74,12.89,27.69,12.89,43.85,0,18.35-6.25,29.62-10.74,29.62Z"/>
      <path class="cls-1" d="M238.67,55.25c-41.5,0-75.26,33.76-75.26,75.26s33.76,75.26,75.26,75.26,75.26-33.76,75.26-75.26-33.76-75.26-75.26-75.26ZM284.35,118.11c-6.63-.19-13.38-1.23-19.75-3.08-22.94-6.64-33-20.9-37.31-30.48,3.64-.9,7.45-1.39,11.37-1.39,21.82,0,40.22,14.84,45.69,34.95ZM238.67,177.86c-26.11,0-47.35-21.24-47.35-47.35,0-12.07,4.54-23.09,12-31.46,7.4,14.83,22.62,33.84,53.53,42.79,8.54,2.47,17.61,3.86,26.56,4.14-6.43,18.53-24.05,31.87-44.74,31.87Z"/>
      <path class="cls-1" d="M449.57,72.37c-13-10.69-29.63-17.12-47.73-17.12-41.5,0-75.26,33.76-75.26,75.26s33.76,75.26,75.26,75.26,75.26-33.76,75.26-75.26v-37.08c0-29.75,2.31-59.75,6.87-89.15l-27.58-4.28c-3.7,23.89-5.97,48.14-6.81,72.37ZM401.83,177.86c-26.11,0-47.35-21.24-47.35-47.35s21.24-47.35,47.35-47.35,47.35,21.24,47.35,47.35-21.24,47.35-47.35,47.35Z"/>
      <path class="cls-1" d="M618.38,144.19c-.12.35-12.56,34.66-52.31,33.65-14.79-.39-28.55-6.9-37.75-17.86-2.83-3.37-5.79-7.85-7.86-13.48,32.46,8.55,64.74-1.29,82.1-17.93,14.65-14.04,18.59-32.21,10.53-48.6-9.19-18.69-30.76-27.83-56.28-23.85-27.98,4.36-60.61,25.9-66.11,62.88-3.23,21.67,2.54,42.6,16.25,58.92,14.33,17.08,35.61,27.22,58.39,27.82.88.02,1.74.03,2.6.03,29.76,0,48.91-13.75,59.82-25.48,11.82-12.7,16.5-25.5,16.99-26.92l-26.36-9.18ZM561.1,83.69c10.2-1.59,22.63-.17,26.94,8.59,2.56,5.2.95,10.63-4.79,16.13-11.03,10.57-37.05,19.15-63.55,8.5,5.94-19.27,24.89-30.65,41.4-33.23Z"/>
    </g>
  </g>
</svg>